<svg width="348" height="210" viewBox="0 0 348 237" fill="none" xmlns="http://www.w3.org/2000/svg">
<rect width="348" height="237" fill="#1F1F1F"/>
<path d="M140.006 67.4817L136 71.7541L223 154.114L140.006 67.4817ZM145.743 91.3374V138.456C147.454 136.616 150.272 136.432 152.204 138.027V107.078L204.642 159H213.68L145.743 91.3374ZM206.816 82.0159C205.568 82.0159 204.36 81.5253 203.474 80.6463V111.881L152.003 60H142.039L209.936 127.499V80.8507C209.07 81.6071 207.963 82.0363 206.816 82.0159Z" fill="white"/>
<path d="M132.51 57C128.353 57 125 60.5765 125 64.9895C125 69.4026 128.353 73 132.49 73C136.627 73 140 69.4235 140 65.0105C140 60.5974 136.647 57 132.51 57ZM133.216 69.9255C132.98 69.9673 132.745 69.9882 132.51 69.9882C129.922 69.9882 127.804 67.7503 127.804 64.9895C127.804 62.2288 129.902 59.9699 132.49 59.9699C135.078 59.9699 137.196 62.2078 137.196 64.9686V65.366C137.02 67.6876 135.373 69.5699 133.216 69.9255Z" fill="white"/>
<path d="M206.914 67C202.45 67.1046 198.917 70.7647 199.001 75.1778C199.107 79.4444 202.577 82.8954 206.914 83C208.036 83 209.157 82.7699 210.194 82.3098C214.277 80.5111 216.118 75.8052 214.298 71.7686C213.008 68.8614 210.109 67 206.914 67ZM210.194 78.7961C208.078 80.5948 204.883 80.3438 203.064 78.2314C201.244 76.1399 201.498 72.9817 203.635 71.183C205.751 69.3843 208.945 69.6353 210.765 71.7477C211.548 72.6471 211.971 73.7974 211.971 74.9895C211.971 76.4536 211.315 77.8549 210.194 78.7961Z" fill="white"/>
<path d="M152.121 136.631C148.038 134.915 143.348 136.82 141.631 140.881C139.914 144.942 141.82 149.652 145.882 151.369C149.944 153.085 154.655 151.18 156.372 147.119C156.791 146.135 157 145.068 157 144C157 140.776 155.074 137.887 152.121 136.631ZM148.981 149.003C146.217 149.003 143.976 146.742 143.976 143.979C143.976 141.216 146.238 138.976 149.002 138.976C151.765 138.976 153.985 141.216 154.006 143.979C153.985 146.763 151.745 149.003 148.981 149.003Z" fill="white"/>
</svg>
